<svg xmlns="http://www.w3.org/2000/svg" width="62" height="62" viewBox="0 0 62 62"><defs><style>.a,.c{fill:none;}.b{fill:#fff;}.c{stroke:#fff;stroke-miterlimit:10;stroke-width:2px;}.d{fill:#ffb300;}</style></defs><g transform="translate(-68 -132)"><rect class="a" width="62" height="62" transform="translate(68 132)"/><g transform="translate(75 138)"><g transform="translate(0)"><path class="b" d="M83.455,2.208a9.977,9.977,0,1,1-9.977,9.977,9.977,9.977,0,0,1,9.977-9.977m0-2.208A12.185,12.185,0,1,0,95.64,12.185,12.185,12.185,0,0,0,83.455,0Z" transform="translate(-59.262)"/><path class="c" d="M14.991,166.051c-6.951,0-11.267-6.807-7.727-12.2,4.636-7.056,13.169-11.787,22.929-11.787s18.293,4.732,22.929,11.787c3.54,5.389-.776,12.2-7.727,12.2Z" transform="translate(-6 -115.924)"/><rect class="d" width="2.819" height="11.256" rx="1.409" transform="translate(29.804 44.975) rotate(90)"/></g></g></g></svg>