<svg xmlns="http://www.w3.org/2000/svg" width="62" height="62" viewBox="0 0 62 62"><defs><style>.a{fill:none;}.b{fill:#fff;}</style></defs><g transform="translate(-107 -132)"><rect class="a" width="62" height="62" transform="translate(107 132)"/><g transform="translate(118 143)"><g transform="translate(0 0)"><path class="b" d="M20.029,2.224a.837.837,0,0,1,.527.187L35.74,19.519H34.7a2.712,2.712,0,0,0-2.935,2.791V36.026a1.773,1.773,0,0,1-1.784,1.758H27.923a1.773,1.773,0,0,1-1.784-1.758V31.982a3.5,3.5,0,0,0-3.481-3.5H17.24a3.5,3.5,0,0,0-3.481,3.5v4.035a1.771,1.771,0,0,1-1.782,1.758H10.062a1.773,1.773,0,0,1-1.784-1.758V22.3A2.712,2.712,0,0,0,5.342,19.51H4.309L19.492,2.418a.837.837,0,0,1,.537-.193m0-2.224a3.01,3.01,0,0,0-2.084.833L.175,20.842a.527.527,0,0,0-.122.574.518.518,0,0,0,.483.327H5.342c.435,0,.733.064.733.565V36.024A3.984,3.984,0,0,0,10.062,40h1.917a3.984,3.984,0,0,0,3.986-3.982V31.982a1.277,1.277,0,0,1,1.277-1.275H22.66a1.277,1.277,0,0,1,1.277,1.275v4.035A3.984,3.984,0,0,0,27.921,40h2.054a3.984,3.984,0,0,0,3.98-3.982V22.3c0-.5.3-.565.733-.565h4.806a.518.518,0,0,0,.483-.327.527.527,0,0,0-.122-.574L22.1.835A3.03,3.03,0,0,0,20.029,0Z" transform="translate(-0.015 0)"/></g></g></g></svg>