<svg xmlns="http://www.w3.org/2000/svg" width="50" height="50" viewBox="0 0 50 50"><defs><style>.a,.b,.c{fill:none;}.b,.c{stroke:#fff;stroke-miterlimit:10;stroke-width:2px;}.c{stroke-linecap:round;}.d{fill:#ffb300;}</style></defs><g transform="translate(-375 -380)"><rect class="a" width="50" height="50" transform="translate(375 380)"/><g transform="translate(385 389)"><g transform="translate(0 0)"><path class="b" d="M35.033,20.015A15.027,15.027,0,0,1,22.49,34.835a31.707,31.707,0,0,0-4.358,2.237s.49-2.081-.184-2.175A15.023,15.023,0,1,1,35.033,20.015Z" transform="translate(-4.985 -4.993)"/><path class="c" d="M45.15,105.28a9.233,9.233,0,0,0,15.308,0" transform="translate(-37.779 -86.875)"/><path class="d" d="M53.487,57.343a2.136,2.136,0,0,0-1.318.391,1.367,1.367,0,0,0-.523,1.171,1.487,1.487,0,0,0,.011.195.593.593,0,0,0,.02.106H52.7V58.9a.641.641,0,0,1,.734-.714.681.681,0,0,1,.508.184.6.6,0,0,1,.184.426,1.193,1.193,0,0,1-.184.661,2.076,2.076,0,0,1-.367.428c-.149.13-.349.294-.606.488a7.817,7.817,0,0,0-.723.58,2.329,2.329,0,0,0-.462.6,1.575,1.575,0,0,0-.184.769v.27h3.6v-.918H52.863a.894.894,0,0,1,.184-.218,6.487,6.487,0,0,1,.54-.406,8.858,8.858,0,0,0,.793-.6,2.589,2.589,0,0,0,.551-.675,1.813,1.813,0,0,0,.233-.918,1.9,1.9,0,0,0-.117-.629,1.268,1.268,0,0,0-.492-.609,1.819,1.819,0,0,0-1.074-.27Z" transform="translate(-43.044 -47.734)"/><path class="d" d="M75.831,57.35Zm0,0H74.772a11.433,11.433,0,0,1-1.382,3.3v.841h2.2v1.1h1.03v-1.1h.617v-.839h-.617v-2.54h-.468c-.061.217-.141.457-.244.721a5.444,5.444,0,0,1-.312.685v1.134H74.284a7.215,7.215,0,0,0,.5-.789,13.213,13.213,0,0,0,.609-1.228,7.708,7.708,0,0,0,.439-1.285Z" transform="translate(-60.836 -47.741)"/><path class="d" d="M102.486,57.84H101.4v2.043H99.158V57.84H98.07v5.153h1.088V60.822H101.4v2.171h1.088V57.84Z" transform="translate(-80.987 -48.141)"/></g></g></g></svg>