<svg xmlns="http://www.w3.org/2000/svg" width="62" height="62" viewBox="0 0 62 62"><defs><style>.a,.c{fill:none;}.b{fill:#fff;}.c{stroke:#ffb300;stroke-linecap:round;stroke-miterlimit:10;stroke-width:3px;}</style></defs><g transform="translate(-609 -132)"><rect class="a" width="62" height="62" transform="translate(609 132)"/><g transform="translate(616 134)"><g transform="translate(0 0)"><path class="b" d="M118.94,283Z" transform="translate(-94.501 -224.853)"/><path class="b" d="M43.545,7.688q-2.609,0-8.708-2.753A92.5,92.5,0,0,1,26.082.466a3.333,3.333,0,0,0-3.392,0,92.092,92.092,0,0,1-8.755,4.467q-6.1,2.753-8.71,2.755A5.37,5.37,0,0,0,0,13.193V32.466C0,45.3,15.649,58.135,24.414,58.15c10.448-.023,24.358-12.858,24.358-25.684V13.193A5.368,5.368,0,0,0,43.545,7.688Zm2.99,24.451c0,11.656-12.634,23.313-22.123,23.333h0C16.45,55.452,2.238,43.8,2.238,32.139V14.65A4.87,4.87,0,0,1,6.986,9.659q2.373,0,7.911-2.5a83.365,83.365,0,0,0,7.948-4.074,3.022,3.022,0,0,1,3.082,0,84.244,84.244,0,0,0,7.952,4.058q5.537,2.517,7.911,2.517a4.877,4.877,0,0,1,4.746,5Z" transform="translate(0 -0.002)"/><line class="c" x2="6.308" y2="3.916" transform="translate(16.483 30.882)"/><line class="c" x1="9.493" y2="11.449" transform="translate(22.797 23.349)"/></g></g></g></svg>