<svg xmlns="http://www.w3.org/2000/svg" width="60" height="60" viewBox="0 0 60 60"><defs><style>.a,.c{fill:none;}.b{fill:#ffb300;}.c{stroke:#fff;stroke-linecap:round;stroke-miterlimit:10;stroke-width:3px;}</style></defs><g transform="translate(-397 -44)"><rect class="a" width="60" height="60" transform="translate(397 44)"/><g transform="translate(405 49)"><g transform="translate(0 0)"><rect class="b" width="20.191" height="4.099" rx="2.05" transform="translate(12.344 18.124)"/><rect class="b" width="20.191" height="4.099" rx="2.05" transform="translate(12.344 26.754)"/><path class="c" d="M44.189,55.625l-4.248-2.682a4.531,4.531,0,0,0-4.553-.164l-5.1,2.729a4.007,4.007,0,0,1-3.72.035L21.1,52.733A4.531,4.531,0,0,0,16.527,53L12.736,55.53a3.983,3.983,0,0,1-4.559-.067A5.306,5.306,0,0,1,6,51.186V17.435A11.474,11.474,0,0,1,17.435,6H39.443A11.474,11.474,0,0,1,50.878,17.435V51.18A5.312,5.312,0,0,1,48.5,55.592,3.97,3.97,0,0,1,44.189,55.625Z" transform="translate(-6 -6)"/></g></g></g></svg>