<svg xmlns="http://www.w3.org/2000/svg" width="62" height="62" viewBox="0 0 62 62"><defs><style>.a,.b{fill:none;}.b{stroke:#fff;stroke-linecap:round;stroke-miterlimit:10;stroke-width:2px;}.c{fill:#fff;}.d{fill:#ffb300;}</style></defs><g transform="translate(-249 -132)"><rect class="a" width="62" height="62" transform="translate(249 132)"/><g transform="translate(256 138)"><g transform="translate(0 0)"><path class="b" d="M47.87,22.162a16.162,16.162,0,0,1,32.323,0" transform="translate(-39.368 -6)"/><path class="c" d="M40.031,95.131a6.5,6.5,0,0,1,6.5,6.488v16.956a6.5,6.5,0,0,1-6.493,6.491H8.623a6.5,6.5,0,0,1-6.491-6.491V101.619a6.5,6.5,0,0,1,6.491-6.488H40.031m0-2.131H8.623A8.623,8.623,0,0,0,0,101.619v16.956A8.623,8.623,0,0,0,8.623,127.2H40.031a8.624,8.624,0,0,0,8.631-8.622V101.619A8.624,8.624,0,0,0,40.031,93Z" transform="translate(0 -77.549)"/><ellipse class="d" cx="2.971" cy="2.971" rx="2.971" ry="2.971" transform="translate(21.357 26.56)"/><rect class="d" width="2.721" height="10.866" rx="1.36" transform="translate(23.005 27.667)"/></g></g></g></svg>