<svg xmlns="http://www.w3.org/2000/svg" width="60" height="60" viewBox="0 0 60 60"><defs><style>.a,.d{fill:none;}.b{fill:#ffb300;}.c{fill:#fff;}.d{stroke:#fff;stroke-linecap:round;stroke-miterlimit:10;stroke-width:3px;}</style></defs><g transform="translate(-252 -44)"><rect class="a" width="60" height="60" transform="translate(252 44)"/><g transform="translate(259 49)"><g transform="translate(0 0)"><path class="b" d="M146.7,192.171l4.835-5.025a.3.3,0,0,1,.5.315l-1.853,4.809a.308.308,0,0,0,0,.216l1.853,4.809a.3.3,0,0,1-.5.315l-4.835-5.025A.3.3,0,0,1,146.7,192.171Z" transform="translate(-116.273 -147.99)"/><rect class="b" width="12.298" height="2.425" rx="1.213" transform="translate(33.173 43.176)"/><rect class="c" width="20.191" height="4.099" rx="2.05" transform="translate(11.595 13.701)"/><rect class="c" width="20.191" height="4.099" rx="2.05" transform="translate(15.086 23.194)"/><rect class="c" width="20.191" height="4.099" rx="2.05" transform="translate(9.601 32.688)"/><path class="d" d="M39.443,56.488H17.435A11.474,11.474,0,0,1,6,45.052V17.435A11.474,11.474,0,0,1,17.435,6H39.443A11.474,11.474,0,0,1,50.878,17.435v25.46" transform="translate(-6 -6)"/></g></g></g></svg>