<svg xmlns="http://www.w3.org/2000/svg" width="50" height="50" viewBox="0 0 50 50"><defs><style>.a,.d{fill:none;}.b{fill:#ffb300;}.c{fill:#fff;}.d{stroke:#fff;stroke-linecap:round;stroke-miterlimit:10;stroke-width:2px;}</style></defs><g transform="translate(-49 -196)"><rect class="a" width="50" height="50" transform="translate(49 196)"/><g transform="translate(0.332 0.332)"><path class="b" d="M11.506,6h23.4a5.506,5.506,0,0,1,5.506,5.506V34.9a5.506,5.506,0,0,1-5.506,5.506h-23.4A5.5,5.5,0,0,1,6,34.9v-23.4A5.506,5.506,0,0,1,11.506,6Z" transform="translate(50.795 197.796)"/><path class="c" d="M30.033,2.255a4.382,4.382,0,0,1,4.377,4.378v23.4a4.382,4.382,0,0,1-4.377,4.377H6.633a4.382,4.382,0,0,1-4.378-4.377V6.633A4.382,4.382,0,0,1,6.633,2.255h23.4m0-2.255H6.633A6.632,6.632,0,0,0,0,6.633v23.4a6.632,6.632,0,0,0,6.633,6.631h23.4a6.632,6.632,0,0,0,6.632-6.631V6.633A6.632,6.632,0,0,0,30.033,0Z" transform="translate(55.668 202.668)"/><line class="d" x2="22.163" transform="translate(61.02 210.498)"/><line class="d" x2="6.791" transform="translate(61.02 222.504)"/><line class="d" x2="12.149" transform="translate(61.02 216.5)"/><line class="d" x1="3.057" y1="3.599" transform="translate(82.937 227.279)"/><ellipse class="d" cx="4.812" cy="4.812" rx="4.812" ry="4.812" transform="translate(75.281 218.203)"/></g></g></svg>