<svg xmlns="http://www.w3.org/2000/svg" width="50" height="50" viewBox="0 0 50 50"><defs><style>.a,.b{fill:none;}.b{stroke:#fff;stroke-linecap:round;stroke-miterlimit:10;stroke-width:2px;}.c{fill:#fff;}.d{fill:#ffb300;}</style></defs><g transform="translate(-281 -196)"><rect class="a" width="50" height="50" transform="translate(281 196)"/><g transform="translate(287 203)"><g transform="translate(0 0)"><path class="b" d="M33.32,14.186a11.963,11.963,0,0,1,23.273,0" transform="translate(-26.372 -4.999)"/><path class="c" d="M33.728,47.085a1.357,1.357,0,0,1,1.355,1.357V68.4a1.357,1.357,0,0,1-1.355,1.355H3.441A1.357,1.357,0,0,1,2.085,68.4V48.447a1.357,1.357,0,0,1,1.355-1.362H33.728m0-2.085H3.441A3.443,3.443,0,0,0,0,48.447V68.408a3.441,3.441,0,0,0,3.441,3.441H33.728a3.441,3.441,0,0,0,3.441-3.441V48.447A3.443,3.443,0,0,0,33.728,45Z" transform="translate(0 -36.659)"/><ellipse class="d" cx="2.438" cy="2.438" rx="2.438" ry="2.438" transform="translate(16.129 15.896)"/><rect class="d" width="2.438" height="8.203" rx="1.219" transform="translate(17.347 17.889)"/></g></g></g></svg>