<svg xmlns="http://www.w3.org/2000/svg" width="50" height="50" viewBox="0 0 50 50"><defs><style>.a,.b,.c{fill:none;}.b{stroke:#fff;stroke-linecap:round;}.b,.c{stroke-miterlimit:10;stroke-width:2px;}.c{stroke:#ffb300;}.d{fill:#ffb300;}</style></defs><g transform="translate(-435 -196)"><rect class="a" width="50" height="50" transform="translate(435 196)"/><g transform="translate(445 203)"><g transform="translate(0 0)"><path class="b" d="M34.818,22.027a18.162,18.162,0,0,1-5.155,12.632c-3.215,3.29-9.8,6.762-9.8,6.762s-6.575-3.516-9.773-6.829A18.174,18.174,0,0,1,5,21.915l.04-11.446L17.482,5.475a6.635,6.635,0,0,1,4.979.019l12.386,5.08Z" transform="translate(-4.999 -5)"/><ellipse class="c" cx="3.668" cy="3.668" rx="3.668" ry="3.668" transform="translate(11.125 8.274)"/><rect class="d" width="1.758" height="12.34" rx="0.879" transform="translate(13.829 15.285)"/><rect class="d" width="1.758" height="6.176" rx="0.879" transform="translate(14.64 19.72) rotate(-90)"/><rect class="d" width="1.758" height="6.176" rx="0.879" transform="translate(14.64 23.554) rotate(-90)"/></g></g></g></svg>