<svg xmlns="http://www.w3.org/2000/svg" width="50" height="50" viewBox="0 0 50 50"><defs><style>.a{fill:none;}.b{fill:#fff;}.c{fill:#ffb300;}</style></defs><g transform="translate(-589 -196)"><rect class="a" width="50" height="50" transform="translate(589 196)"/><g transform="translate(594 207)"><g transform="translate(0 0)"><path class="b" d="M35.6,2.085A1.518,1.518,0,0,1,37.116,3.6V24.482A1.516,1.516,0,0,1,35.6,26H3.6a1.516,1.516,0,0,1-1.516-1.514V3.6A1.518,1.518,0,0,1,3.6,2.085h32M35.6,0H3.6A3.6,3.6,0,0,0,0,3.6V24.482a3.6,3.6,0,0,0,3.6,3.6h32a3.6,3.6,0,0,0,3.605-3.6V3.6A3.6,3.6,0,0,0,35.6,0Z" transform="translate(0 0)"/><path class="c" d="M122.12,88.491h-9.46l2.419-4.321h9.46Z" transform="translate(-89.168 -66.619)"/><rect class="b" width="36.493" height="3.24" transform="translate(1.307 6.299)"/></g></g></g></svg>