<svg xmlns="http://www.w3.org/2000/svg" width="50" height="50" viewBox="0 0 50 50"><defs><style>.a,.d{fill:none;}.b{fill:#fff;}.c{fill:#ffb300;}.d{stroke:#fff;stroke-linecap:round;stroke-miterlimit:10;stroke-width:2px;}</style></defs><g transform="translate(-168 -196)"><rect class="a" width="50" height="50" transform="translate(168 196)"/><g transform="translate(177 202)"><g transform="translate(0 0)"><path class="b" d="M16.241,38.641C10.415,38.641,0,30.1,0,21.569V8.767A3.569,3.569,0,0,1,3.472,5.109q1.737,0,5.787-1.829A61.135,61.135,0,0,0,15.085.311a2.214,2.214,0,0,1,2.254,0A61.181,61.181,0,0,0,23.156,3.28q4.06,1.831,5.788,1.829a3.569,3.569,0,0,1,3.472,3.658v12.8c0,8.535-9.261,17.072-16.206,17.072Z" transform="translate(0 -0.003)"/><path class="c" d="M25.3,47.117C20.18,47.117,11,39.6,11,32.091V20.823a3.141,3.141,0,0,1,3.056-3.22,14.836,14.836,0,0,0,5.095-1.61,53.717,53.717,0,0,0,5.119-2.614,1.942,1.942,0,0,1,1.984,0,53.957,53.957,0,0,0,5.119,2.614,14.823,14.823,0,0,0,5.093,1.61,3.142,3.142,0,0,1,3.058,3.22V32.091c0,7.511-8.15,15.026-14.264,15.026Z" transform="translate(-9.058 -10.793)"/><line class="d" x2="4.06" y2="2.521" transform="translate(11.118 20.482)"/><line class="d" x1="6.108" y2="7.368" transform="translate(15.182 15.635)"/></g></g></g></svg>