<svg xmlns="http://www.w3.org/2000/svg" width="75" height="75" viewBox="0 0 75 75"><defs><style>.a,.b,.c{fill:none;}.b,.c{stroke:#fff;stroke-miterlimit:10;stroke-width:3px;}.c{stroke-linecap:round;}.d{fill:#ffb300;}</style></defs><g transform="translate(-269 -301)"><rect class="a" width="75" height="75" transform="translate(269 301)"/><g transform="translate(280 311)"><g transform="translate(0 0)"><path class="b" d="M57.028,31.012A26.027,26.027,0,0,1,35.3,56.68c-1.4.232-7.548,3.875-7.548,3.875s.849-3.6-.318-3.767a26.021,26.021,0,1,1,29.59-25.776Z" transform="translate(-4.985 -4.993)"/><path class="c" d="M45.15,105.28a15.992,15.992,0,0,0,26.513,0" transform="translate(-32.383 -73.402)"/><path class="d" d="M54.87,57.344a3.7,3.7,0,0,0-2.282.677,2.368,2.368,0,0,0-.906,2.028,2.576,2.576,0,0,0,.019.337,1.027,1.027,0,0,0,.035.184H53.5v-.534A1.11,1.11,0,0,1,54.774,58.8a1.179,1.179,0,0,1,.88.318,1.033,1.033,0,0,1,.318.737A2.066,2.066,0,0,1,55.655,61a3.6,3.6,0,0,1-.636.741c-.257.226-.6.509-1.049.846a13.54,13.54,0,0,0-1.252,1,4.034,4.034,0,0,0-.8,1.036,2.727,2.727,0,0,0-.318,1.332v.467h6.237V64.836H53.789a1.548,1.548,0,0,1,.318-.378,11.235,11.235,0,0,1,.935-.7,15.345,15.345,0,0,0,1.373-1.033,4.485,4.485,0,0,0,.954-1.17,3.14,3.14,0,0,0,.4-1.589,3.293,3.293,0,0,0-.2-1.09,2.2,2.2,0,0,0-.852-1.055,3.15,3.15,0,0,0-1.86-.467Z" transform="translate(-36.782 -40.701)"/><path class="d" d="M77.618,57.35Zm0,0H75.784a19.8,19.8,0,0,1-2.394,5.722v1.456H77.2v1.907h1.783V64.527h1.068V63.075H78.988v-4.4h-.811c-.1.375-.245.791-.423,1.249a9.426,9.426,0,0,1-.54,1.186v1.964H74.938a12.5,12.5,0,0,0,.871-1.367,22.888,22.888,0,0,0,1.055-2.127,13.351,13.351,0,0,0,.76-2.225Z" transform="translate(-51.646 -40.707)"/><path class="d" d="M105.718,57.84h-1.885v3.538H99.955V57.84H98.07v8.926h1.885v-3.76h3.878v3.76h1.885V57.84Z" transform="translate(-68.482 -41.042)"/></g></g></g></svg>