<svg xmlns="http://www.w3.org/2000/svg" width="62" height="62" viewBox="0 0 62 62"><defs><style>.a{fill:none;}.b{fill:#fff;}</style></defs><g transform="translate(-594 -132)"><rect class="a" width="62" height="62" transform="translate(594 132)"/><g transform="translate(311 143)"><g transform="translate(294 0)"><path class="b" d="M28.62,101.081a9.474,9.474,0,0,1,9.348,9.6,4.254,4.254,0,0,1-4.193,4.3H6.228a4.255,4.255,0,0,1-4.193-4.307,9.474,9.474,0,0,1,9.348-9.6H28.622m0-2.089H11.38A11.569,11.569,0,0,0,0,110.674H0a6.33,6.33,0,0,0,6.228,6.393H33.772A6.33,6.33,0,0,0,40,110.674h0A11.569,11.569,0,0,0,28.62,98.992Z" transform="translate(0 -77.067)"/><path class="b" d="M64.6,2.341a.346.346,0,0,1,.337.337v7.364A7.04,7.04,0,0,1,57.9,17.073H56.722a7.04,7.04,0,0,1-7.031-7.031V9.372a7.04,7.04,0,0,1,7.031-7.031H64.6M64.6,0H56.722A9.4,9.4,0,0,0,47.35,9.372v.669a9.4,9.4,0,0,0,9.372,9.372H57.9a9.4,9.4,0,0,0,9.372-9.372V2.678A2.678,2.678,0,0,0,64.6,0Z" transform="translate(-37.314)"/></g></g></g></svg>