<svg xmlns="http://www.w3.org/2000/svg" width="62" height="62" viewBox="0 0 62 62"><defs><style>.a,.c{fill:none;}.b{fill:#fff;}.c{stroke:#fff;stroke-linecap:round;stroke-miterlimit:10;stroke-width:2.5px;}</style></defs><g transform="translate(-432 -132)"><rect class="a" width="62" height="62" transform="translate(432 132)"/><g transform="translate(-0.268 0.518)"><path class="b" d="M26.8,18.633a2.365,2.365,0,0,1,2.361,2.361V48.262A2.365,2.365,0,0,1,26.8,50.621H4.664A2.365,2.365,0,0,1,2.3,48.26V20.994a2.365,2.365,0,0,1,2.361-2.361H26.8m0-2.3H4.664A4.664,4.664,0,0,0,0,20.994V48.262a4.664,4.664,0,0,0,4.664,4.664H26.8a4.664,4.664,0,0,0,4.664-4.664V20.994A4.664,4.664,0,0,0,26.8,16.33Z" transform="translate(447.268 128.83)"/><line class="c" x2="13.792" transform="translate(452.301 155.88)"/><line class="c" x2="8.275" transform="translate(452.301 162.185)"/><line class="c" y1="5.517" transform="translate(457.029 142.482)"/><line class="c" y1="5.517" transform="translate(469.246 142.482)"/></g></g></svg>