<svg xmlns="http://www.w3.org/2000/svg" width="62" height="62" viewBox="0 0 62 62"><defs><style>.a{fill:none;}.b{fill:#ffb300;}.c{fill:#fff;}</style></defs><g transform="translate(-261 -241)"><rect class="a" width="62" height="62" transform="translate(261 241)"/><g transform="translate(-56.76 -8.215)"><rect class="b" width="17.074" height="17.074" rx="2" transform="translate(329.869 261.338)"/><path class="c" d="M14.748,2.217a2.331,2.331,0,0,1,2.326,2.337v10.2a2.328,2.328,0,0,1-2.326,2.319H4.548a2.328,2.328,0,0,1-2.331-2.317V4.557A2.33,2.33,0,0,1,4.543,2.217h10.2m0-2.217H4.543A4.546,4.546,0,0,0,0,4.555v10.2a4.543,4.543,0,0,0,4.543,4.537h10.2a4.543,4.543,0,0,0,4.548-4.535V4.557A4.546,4.546,0,0,0,14.748,0Z" transform="translate(328.76 260.22)"/><rect class="b" width="17.074" height="17.074" rx="3" transform="translate(329.869 281.841)"/><path class="c" d="M14.748,95.217a2.33,2.33,0,0,1,2.326,2.337v10.2a2.328,2.328,0,0,1-2.326,2.319H4.548a2.328,2.328,0,0,1-2.331-2.317v-10.2a2.331,2.331,0,0,1,2.326-2.339h10.2m0-2.217H4.543A4.546,4.546,0,0,0,0,97.555v10.2a4.543,4.543,0,0,0,4.543,4.537h10.2a4.543,4.543,0,0,0,4.548-4.535v-10.2A4.546,4.546,0,0,0,14.748,93Z" transform="translate(328.76 187.724)"/><rect class="b" width="17.074" height="17.074" rx="5" transform="translate(350.371 281.85)"/><path class="c" d="M111.748,95.217a2.33,2.33,0,0,1,2.326,2.337v10.2a2.328,2.328,0,0,1-2.326,2.319h-10.2a2.328,2.328,0,0,1-2.331-2.317v-10.2a2.331,2.331,0,0,1,2.326-2.339h10.2m0-2.217h-10.2A4.546,4.546,0,0,0,97,97.555v10.2a4.543,4.543,0,0,0,4.543,4.537h10.2a4.543,4.543,0,0,0,4.548-4.535v-10.2A4.546,4.546,0,0,0,111.748,93Z" transform="translate(252.262 187.733)"/><path class="b" d="M110.513,22.142a3.421,3.421,0,0,1-2.439-1.007l-5.1-5.1a3.439,3.439,0,0,1,0-4.858l5.1-5.1a3.437,3.437,0,0,1,4.861,0l5.1,5.1a3.439,3.439,0,0,1,0,4.858l-5.1,5.1A3.421,3.421,0,0,1,110.513,22.142Z" transform="translate(248.396 256.269)"/><path class="c" d="M106.639,2.217a2.313,2.313,0,0,1,1.645.681l5.1,5.1a2.326,2.326,0,0,1,.018,3.311l-5.1,5.1a2.324,2.324,0,0,1-3.291,0l-5.1-5.1a2.326,2.326,0,0,1,0-3.291l5.1-5.1a2.313,2.313,0,0,1,1.628-.7m0-2.217a4.532,4.532,0,0,0-3.215,1.33l-5.1,5.1a4.546,4.546,0,0,0,0,6.43l5.1,5.1a4.539,4.539,0,0,0,6.43,0l5.1-5.1a4.546,4.546,0,0,0,0-6.43l-5.1-5.1A4.532,4.532,0,0,0,106.639,0Z" transform="translate(252.27 260.215)"/></g></g></svg>