<svg xmlns="http://www.w3.org/2000/svg" width="62" height="62" viewBox="0 0 62 62"><defs><style>.a,.d{fill:none;}.b{fill:#ffb300;}.c{fill:#fff;}.d{stroke:#fff;stroke-linecap:round;stroke-miterlimit:10;stroke-width:2.5px;}</style></defs><g transform="translate(-432 -241)"><rect class="a" width="62" height="62" transform="translate(432 241)"/><g transform="translate(45.385 -8.97)"><rect class="b" width="29.274" height="34.537" rx="1" transform="translate(402.71 264.611)"/><path class="c" d="M26.8,18.641a2.37,2.37,0,0,1,2.361,2.369V48.377A2.37,2.37,0,0,1,26.8,50.744H4.664A2.37,2.37,0,0,1,2.3,48.375V21.011a2.37,2.37,0,0,1,2.361-2.369H26.8m0-2.311H4.664A4.672,4.672,0,0,0,0,21.011V48.377a4.672,4.672,0,0,0,4.664,4.68H26.8a4.672,4.672,0,0,0,4.664-4.68V21.011A4.672,4.672,0,0,0,26.8,16.33Z" transform="translate(401.615 247.186)"/><line class="d" x2="13.116" transform="translate(406.641 274.368)"/><line class="d" x2="8.245" transform="translate(406.546 280.672)"/><line class="d" y1="5.247" transform="translate(411.578 260.969)"/><line class="d" y1="5.247" transform="translate(423.4 260.969)"/></g></g></svg>