<svg xmlns="http://www.w3.org/2000/svg" width="62" height="62" viewBox="0 0 62 62"><defs><style>.a{fill:none;}.b{fill:#fff;}</style></defs><g transform="translate(-261 -132)"><rect class="a" width="62" height="62" transform="translate(261 132)"/><g transform="translate(272 143)"><g transform="translate(0 0)"><path class="b" d="M14.841,2.231a2.345,2.345,0,0,1,2.341,2.352V14.848a2.343,2.343,0,0,1-2.341,2.334H4.577A2.343,2.343,0,0,1,2.231,14.85V4.586A2.345,2.345,0,0,1,4.572,2.231H14.837m0-2.231H4.572A4.575,4.575,0,0,0,0,4.583V14.848a4.572,4.572,0,0,0,4.572,4.566H14.837a4.572,4.572,0,0,0,4.577-4.563V4.586A4.575,4.575,0,0,0,14.841,0Z" transform="translate(0 0)"/><path class="b" d="M14.841,95.231a2.345,2.345,0,0,1,2.341,2.352v10.265a2.343,2.343,0,0,1-2.341,2.334H4.577a2.343,2.343,0,0,1-2.345-2.332V97.586a2.345,2.345,0,0,1,2.341-2.354H14.837m0-2.231H4.572A4.574,4.574,0,0,0,0,97.583v10.265a4.572,4.572,0,0,0,4.572,4.566H14.837a4.572,4.572,0,0,0,4.577-4.563V97.586A4.575,4.575,0,0,0,14.841,93Z" transform="translate(0 -72.414)"/><path class="b" d="M111.841,95.231a2.345,2.345,0,0,1,2.341,2.352v10.265a2.343,2.343,0,0,1-2.341,2.334H101.577a2.343,2.343,0,0,1-2.345-2.332V97.586a2.345,2.345,0,0,1,2.341-2.354h10.265m0-2.231H101.572A4.575,4.575,0,0,0,97,97.583v10.265a4.572,4.572,0,0,0,4.572,4.566h10.265a4.572,4.572,0,0,0,4.577-4.563V97.586A4.575,4.575,0,0,0,111.841,93Z" transform="translate(-76.416 -72.414)"/><path class="b" d="M106.7,2.231a2.327,2.327,0,0,1,1.656.685l5.132,5.132a2.341,2.341,0,0,1,.018,3.332l-5.132,5.132a2.339,2.339,0,0,1-3.312,0L99.93,11.38a2.341,2.341,0,0,1,0-3.312l5.132-5.132a2.327,2.327,0,0,1,1.638-.705M106.7,0a4.561,4.561,0,0,0-3.236,1.339L98.332,6.471a4.575,4.575,0,0,0,0,6.471l5.132,5.132a4.568,4.568,0,0,0,6.471,0l5.132-5.132a4.575,4.575,0,0,0,0-6.471l-5.132-5.132A4.561,4.561,0,0,0,106.7,0Z" transform="translate(-76.409 0)"/></g></g></g></svg>