<svg xmlns="http://www.w3.org/2000/svg" width="62" height="62" viewBox="0 0 62 62"><defs><style>.a{fill:none;}.b{fill:#ffb300;}.c{fill:#fff;}</style></defs><g transform="translate(-594 -241)"><rect class="a" width="62" height="62" transform="translate(594 241)"/><g transform="translate(604.924 252.162)"><path class="b" d="M10.349,119.26a5.062,5.062,0,0,1-5.119-4.99,10.185,10.185,0,0,1,10.3-10.04H32.863a10.185,10.185,0,0,1,10.3,10.04,5.062,5.062,0,0,1-5.119,4.99Z" transform="translate(-4.115 -80.375)"/><path class="c" d="M28.735,101.34a9.27,9.27,0,0,1,9.143,9.37,4.025,4.025,0,0,1-3.97,4.069H6.253a4.025,4.025,0,0,1-3.97-4.069,9.27,9.27,0,0,1,9.143-9.37H28.735m0-2.34H11.426A11.606,11.606,0,0,0,0,110.709H0a6.35,6.35,0,0,0,6.253,6.408H33.908a6.35,6.35,0,0,0,6.253-6.408h0A11.606,11.606,0,0,0,28.735,99Z" transform="translate(0.076 -77.259)"/><path class="b" d="M60.407,21.539A7.843,7.843,0,0,1,52.57,13.7v-.639A7.843,7.843,0,0,1,60.407,5.23h7.521a1.445,1.445,0,0,1,1.443,1.443V13.7a7.843,7.843,0,0,1-7.835,7.835Z" transform="translate(-40.891 -4.277)"/><path class="c" d="M64.434,2.321a.35.35,0,0,1,.343.342V9.984a6.993,6.993,0,0,1-6.973,7H56.632a6.993,6.993,0,0,1-6.973-7V9.318a6.993,6.993,0,0,1,6.973-7h7.8m0-2.321h-7.8A9.327,9.327,0,0,0,47.35,9.318v.666A9.327,9.327,0,0,0,56.632,19.3H57.8a9.327,9.327,0,0,0,9.282-9.318V2.662A2.657,2.657,0,0,0,64.434,0Z" transform="translate(-37.061 -0.162)"/></g></g></svg>