<svg xmlns="http://www.w3.org/2000/svg" width="62" height="62" viewBox="0 0 62 62"><defs><style>.a{fill:none;}.b{fill:#fff;}.c{fill:#ffb300;}</style></defs><g transform="translate(-434 -132)"><rect class="a" width="62" height="62" transform="translate(434 132)"/><g transform="translate(439 137)"><g transform="translate(0 0)"><path class="b" d="M16.473,2.263a6.011,6.011,0,0,1,6,6v8.272a6.011,6.011,0,0,1-6,6H8.265a6.011,6.011,0,0,1-6-6V8.265a6.009,6.009,0,0,1,6-6h8.208m0-2.263H8.265A8.265,8.265,0,0,0,0,8.265v8.272A8.267,8.267,0,0,0,8.265,24.8h8.208a8.267,8.267,0,0,0,8.267-8.267V8.265A8.265,8.265,0,0,0,16.473,0Z" transform="translate(0 0)"/><path class="b" d="M157.263,2.263a6.011,6.011,0,0,1,6.011,6v8.272a6.011,6.011,0,0,1-6,6h-8.216a6.009,6.009,0,0,1-6-6V8.265a6.009,6.009,0,0,1,6-6h8.208m0-2.263h-8.208a8.265,8.265,0,0,0-8.265,8.265v8.272a8.267,8.267,0,0,0,8.265,8.267h8.208a8.269,8.269,0,0,0,8.274-8.267V8.265A8.266,8.266,0,0,0,157.265,0Z" transform="translate(-114.236 0)"/><path class="b" d="M16.473,142.093a6.011,6.011,0,0,1,6,6v8.272a6.011,6.011,0,0,1-6,6H8.265a6.011,6.011,0,0,1-6-6v-8.272a6.009,6.009,0,0,1,6-6h8.208m0-2.263H8.265A8.265,8.265,0,0,0,0,148.095v8.272a8.267,8.267,0,0,0,8.265,8.267h8.208a8.267,8.267,0,0,0,8.267-8.267v-8.272a8.265,8.265,0,0,0-8.267-8.265Z" transform="translate(0 -113.457)"/><rect class="c" width="2.889" height="22.444" rx="1.445" transform="translate(33.38 28.731)"/><rect class="c" width="2.889" height="13.957" rx="1.445" transform="translate(41.301 37.22)"/></g></g></g></svg>