<svg xmlns="http://www.w3.org/2000/svg" width="60" height="60" viewBox="0 0 60 60"><defs><style>.a,.d{fill:none;}.b{fill:#ffb300;}.c{fill:#fff;}.d{stroke:#fff;stroke-linecap:round;stroke-miterlimit:10;stroke-width:3px;}</style></defs><g transform="translate(-574 -44)"><rect class="a" width="60" height="60" transform="translate(574 44)"/><g transform="translate(581 49)"><g transform="translate(0 0)"><path class="b" d="M199.909,193.674l-4.824-5.021a.3.3,0,0,0-.494.315l1.851,4.809a.308.308,0,0,1,0,.216l-1.862,4.8a.3.3,0,0,0,.494.315l4.835-5.025A.3.3,0,0,0,199.909,193.674Z" transform="translate(-153.874 -149.169)"/><rect class="b" width="12.298" height="2.425" rx="1.213" transform="translate(30.977 43.499)"/><rect class="c" width="20.191" height="4.099" rx="2.05" transform="translate(11.595 13.701)"/><rect class="c" width="20.191" height="4.099" rx="2.05" transform="translate(15.086 23.194)"/><rect class="c" width="20.191" height="4.099" rx="2.05" transform="translate(9.601 32.688)"/><path class="d" d="M39.443,56.488H17.435A11.474,11.474,0,0,1,6,45.052V17.435A11.474,11.474,0,0,1,17.435,6H39.443A11.474,11.474,0,0,1,50.878,17.435v25.46" transform="translate(-6 -6)"/></g></g></g></svg>