<?xml version="1.0" standalone="no"?><!DOCTYPE svg PUBLIC "-//W3C//DTD SVG 1.1//EN" "http://www.w3.org/Graphics/SVG/1.1/DTD/svg11.dtd"><svg t="1650188685901" class="icon" viewBox="0 0 1024 1024" version="1.1" xmlns="http://www.w3.org/2000/svg" p-id="26232" xmlns:xlink="http://www.w3.org/1999/xlink" width="200" height="200"><defs><style type="text/css">@font-face { font-family: feedback-iconfont; src: url("//at.alicdn.com/t/font_1031158_u69w8yhxdu.woff2?t=1630033759944") format("woff2"), url("//at.alicdn.com/t/font_1031158_u69w8yhxdu.woff?t=1630033759944") format("woff"), url("//at.alicdn.com/t/font_1031158_u69w8yhxdu.ttf?t=1630033759944") format("truetype"); }
</style></defs><path d="M994.816 306.688c0 17.92-14.848 32.768-32.768 32.768h-60.416v60.928c0 17.92-14.848 32.768-32.768 32.768-17.92 0-32.768-14.848-32.768-32.768V339.456h-60.416c-17.92 0-32.768-14.848-32.768-32.768 0-17.92 14.848-32.768 32.768-32.768h60.416v-61.44c0-17.92 14.848-32.768 32.768-32.768 17.92 0 32.768 14.848 32.768 32.768v61.44h60.416c18.432 0 32.768 14.848 32.768 32.768zM691.2 650.752c0 17.92-14.848 32.768-32.768 32.768h-111.616v50.688c0 17.92-14.848 32.768-32.768 32.768-17.92 0-32.768-14.848-32.768-32.768v-50.688H371.2c-17.92 0-32.768-14.848-32.768-32.768 0-17.92 14.848-32.768 32.768-32.768H481.28v-41.984H371.2c-17.92 0-32.768-14.848-32.768-32.768 0-17.92 14.848-32.768 32.768-32.768H481.28v-11.264L350.72 390.656c-6.656-5.12-10.752-13.312-11.776-22.016-1.024-8.704 2.048-17.408 7.68-24.576 11.776-13.824 32.256-15.872 46.08-4.096l121.856 101.376 117.76-97.792c6.656-5.632 15.36-8.192 24.064-7.168 8.704 1.024 16.384 5.12 22.016 11.776 5.632 6.656 8.192 15.36 7.68 24.064-1.024 8.704-5.12 16.384-11.776 22.016L547.84 499.2v11.264h111.616c17.92 0 32.768 14.848 32.768 32.768 0 17.92-14.848 32.768-32.768 32.768H547.84v41.984h111.616c16.896 0 31.744 14.848 31.744 32.768z" p-id="26233"></path><path d="M953.344 687.104c-23.04 58.88-56.32 111.616-98.816 155.648-42.496 45.568-92.672 81.408-149.504 107.52-51.712 24.064-107.008 37.888-164.864 41.472h-3.072c-1.536 0-3.072 0.512-4.608 0.512h-1.024c-7.68 0.512-15.872 0.512-23.552 0.512-35.84 0-72.192-4.096-107.52-12.288-1.024 0-2.048-0.512-2.56-0.512-1.536 0-2.56-0.512-3.072-1.024-1.024-0.512-2.56-0.512-3.584-1.024-1.536-0.512-3.072-1.024-4.608-1.024h-2.048l-2.048-0.512c-1.024-0.512-2.048-0.512-3.072-1.024-1.536-0.512-3.072-1.024-4.096-1.536-0.512 0-1.536-0.512-1.536-0.512-17.408-5.12-34.304-11.264-50.688-18.432l-9.216-3.584s-0.512 0-1.024-0.512c-1.024-0.512-2.048-0.512-2.56-1.024l-1.024-0.512s-0.512 0-1.024-0.512c-1.024-0.512-2.048-1.024-3.584-1.536l-7.68-4.096c-2.56-1.024-5.12-2.048-7.168-3.072l-2.56-1.024c-34.304-17.408-67.072-40.448-97.28-67.072l-1.536-1.536c-2.56-2.048-4.096-3.584-5.632-5.12l-13.312-13.312c-15.872-15.872-30.72-32.768-45.056-52.224-20.48-27.136-38.4-57.856-52.736-90.624-25.6-56.32-39.424-117.248-41.984-180.736V491.52c2.048-53.76 13.312-107.008 32.768-158.72 23.04-58.88 56.32-111.616 98.816-155.648l19.456-19.456c0.512-0.512 0.512-1.024 1.024-1.024 1.024-1.536 2.56-2.56 4.096-4.096 24.576-22.016 49.664-40.96 74.24-55.808 29.184-17.408 60.416-32.256 94.208-43.52 33.28-11.264 66.56-18.432 98.816-22.016 2.56-1.024 4.608-0.512 6.656-1.024 2.56-0.512 5.632-0.512 7.68-0.512h5.12c48.64-3.584 97.28 0 143.36 11.264 62.464 14.848 120.832 41.984 172.544 80.384 7.168 5.12 11.776 12.8 13.312 21.504 1.536 8.704-0.512 17.408-6.144 24.576-11.264 14.848-31.744 17.92-46.08 7.168-74.24-53.76-161.28-81.408-251.392-79.36h-1.024c-10.752 0.512-19.968 1.024-29.696 2.048h-4.096c-2.56 0-5.12 0-7.168 0.512-1.536 0.512-2.56 1.024-4.096 1.024l-8.192 1.536c-33.28 5.12-65.536 14.336-96.256 27.648l-0.512 0.512-2.048 1.024-3.072 1.536c-1.024 0.512-2.56 1.024-4.096 1.536h-0.512c-1.024 0.512-2.048 1.536-4.096 2.048-0.512-1.536-0.512-1.536-1.024-1.536l-3.072 1.536-3.072 1.536c-1.024 0.512-2.048 1.024-2.56 1.536h-0.512l-1.536 0.512c-40.448 20.48-78.336 49.152-112.64 84.992-9.216 9.728-17.92 19.968-26.624 30.72l-6.144 7.68c-0.512 1.024-1.024 2.048-2.048 3.072-0.512 1.024-1.024 1.536-1.536 2.048 0 0.512-0.512 0.512-0.512 1.024-0.512 1.536-1.536 2.56-2.048 3.584-0.512 0.512-0.512 1.024-1.024 1.536-0.512 1.024-1.024 1.536-1.536 2.56l-1.024 1.024c-0.512 1.024-1.536 2.048-2.048 2.56-1.024 1.024-1.536 2.56-2.56 3.584 0 0.512-0.512 1.024-1.024 1.536l-4.608 8.192c0 0.512-0.512 0.512-0.512 1.024l-5.12 8.192c0 0.512-0.512 1.024-1.024 1.536-0.512 0.512-1.024 1.536-1.536 2.56l-1.536 3.072c-0.512 1.024-1.024 1.536-1.024 2.048-0.512 1.536-1.536 2.56-2.048 4.096-0.512 1.024-1.024 1.536-1.024 2.56-0.512 1.536-1.024 2.56-1.536 3.072-0.512 2.048-1.536 3.584-2.56 5.12l-0.512 1.024c-0.512 0.512-0.512 1.024-0.512 1.536-0.512 1.536-1.536 3.072-2.56 4.608-0.512 1.024-0.512 1.024-1.024 1.536l-0.512 1.024-1.536 3.072c-0.512 1.536-1.024 2.56-1.536 3.584v0.512c0 0.512-0.512 1.024-1.024 2.048 0 0.512-0.512 1.536-1.024 2.048-0.512 1.536-1.536 3.072-2.048 4.608v0.512c-22.016 53.76-32.256 111.104-30.72 169.984 0 14.336 1.536 28.16 3.072 41.984v1.024c0 1.536 0.512 3.584 0.512 5.632v1.024c0 1.024 0.512 2.56 0.512 4.096 0 1.024 0 2.048 0.512 4.096l0.512 3.072c0 0.512 0.512 1.536 0.512 2.048 0.512 2.048 1.024 4.096 1.536 6.656v1.536c0 0.512 0.512 1.536 0.512 2.56s0.512 2.048 0.512 3.072c0.512 1.536 1.024 3.584 1.024 5.12v1.024c43.008 186.88 211.968 323.072 402.432 323.072h15.36c17.408-0.512 34.816-2.56 49.152-5.12 53.76-8.704 104.96-27.648 151.04-55.808l2.56-1.536c2.048-1.536 4.096-2.56 5.632-3.584l1.024-0.512c1.024-0.512 1.536-1.024 2.56-1.536 0.512 0 1.024-0.512 1.536-1.024 1.024-0.512 2.048-1.536 3.584-2.048 0.512 0 0.512-0.512 1.024-0.512 1.024-0.512 1.536-1.536 2.56-2.048l2.048-1.024s0.512 0 0.512-0.512c0.512-0.512 1.024-0.512 1.536-1.024 1.024-0.512 2.048-1.536 2.56-2.048 0.512-0.512 1.536-1.024 2.048-1.536 1.024-1.024 2.048-2.048 4.096-3.072 1.024-0.512 2.048-1.536 3.072-2.048 1.024-0.512 1.536-1.536 2.56-2.048l2.048-1.536c1.024-1.024 2.048-1.536 2.56-2.56 0.512-0.512 1.024-0.512 1.536-1.024 0.512-1.024 1.536-1.536 2.56-2.56l0.512-0.512c2.048-1.536 4.096-3.072 5.632-4.608l3.072-3.072h0.512l1.536-1.536c0.512-0.512 1.024-1.024 2.048-1.536 1.024-1.536 2.56-2.56 3.072-3.072l1.024-0.512c1.536-1.024 2.56-2.048 4.096-3.584l1.536-1.536c0.512-0.512 1.024-1.024 2.048-1.536l9.216-9.216c12.8-12.8 25.088-27.648 39.424-46.592l0.512-0.512c0.512-0.512 1.024-1.024 1.024-1.536 53.248-74.24 79.872-161.28 77.312-252.928 0-18.432 13.824-32.768 31.744-33.792h1.024c17.408 0 32.256 14.336 32.256 30.72 0.512 66.56-10.752 130.048-34.304 189.44z" p-id="26234"></path></svg>