<?xml version="1.0" standalone="no"?><!DOCTYPE svg PUBLIC "-//W3C//DTD SVG 1.1//EN" "http://www.w3.org/Graphics/SVG/1.1/DTD/svg11.dtd"><svg t="1650187128113" class="icon" viewBox="0 0 1024 1024" version="1.1" xmlns="http://www.w3.org/2000/svg" p-id="17033" xmlns:xlink="http://www.w3.org/1999/xlink" width="200" height="200"><defs><style type="text/css">@font-face { font-family: feedback-iconfont; src: url("//at.alicdn.com/t/font_1031158_u69w8yhxdu.woff2?t=1630033759944") format("woff2"), url("//at.alicdn.com/t/font_1031158_u69w8yhxdu.woff?t=1630033759944") format("woff"), url("//at.alicdn.com/t/font_1031158_u69w8yhxdu.ttf?t=1630033759944") format("truetype"); }
</style></defs><path d="M179.85 1010.863c-73.364 0-132.854-59.49-132.854-132.853V147.32c0-73.368 59.49-132.858 132.854-132.858h664.3c73.363 0 132.854 59.49 132.854 132.858v132.849h-66.431V147.316c0-36.69-29.733-66.428-66.422-66.428H179.853c-36.683 0-66.43 29.738-66.43 66.428v730.689c0 36.68 29.737 66.431 66.43 66.431h664.292c36.684 0 66.427-29.742 66.427-66.431v-132.85h66.426v132.85c0 73.368-59.485 132.858-132.854 132.858H179.85z m0 0" p-id="17034"></path><path d="M691.389 331.13c-12.943-12.966-12.943-34.018 0-46.96 12.975-12.976 34.024-12.976 47.004 0L967.55 513.32c6.908 6.914 9.858 16.09 9.407 25.13 0.45 9.05-2.505 18.23-9.407 25.176L738.393 792.778c-12.98 12.97-34.029 12.97-47.004 0-12.943-12.976-12.943-34.029 0-46.965L865.545 571.66H609.008c-18.321 0-33.211-14.847-33.211-33.211 0-18.317 14.89-33.211 33.211-33.211h256.537L691.39 331.13z m0 0M297.105 601.912V551.53h-97.96c-20.555 0-30.79-7.435-30.79-22.392 0-14.905 10.235-23.306 30.79-25.183h67.176L151.561 327.62c-1.882 0-3.763-1.839-5.598-5.597-3.763-5.601-5.596-13.033-5.596-22.392 0-13.033 8.4-21.433 25.191-25.196 13.032 1.886 24.227 8.4 33.586 19.595L327.897 487.16 456.646 294.03c7.44-11.194 18.634-17.709 33.59-19.595 14.91 3.768 23.31 12.163 25.187 25.196 0 5.597-2.799 13.075-8.39 22.392-1.882 1.882-2.804 3.758-2.804 5.597L389.472 503.955h67.174c18.634 1.877 28.91 10.278 30.792 25.183-1.882 14.957-12.158 22.392-30.792 22.392h-97.96v50.377h97.96c18.634 1.882 28.91 10.277 30.792 25.196-1.882 14.952-12.158 22.383-30.792 22.383h-97.96v111.962c-1.882 18.673-12.164 27.985-30.79 27.985-20.557 0-30.791-9.312-30.791-27.985V649.486h-97.96c-20.555 0-30.79-7.43-30.79-22.383 0-14.92 10.235-23.314 30.79-25.196h97.96v0.005z m0 0" p-id="17035"></path></svg>