<?xml version="1.0" standalone="no"?><!DOCTYPE svg PUBLIC "-//W3C//DTD SVG 1.1//EN" "http://www.w3.org/Graphics/SVG/1.1/DTD/svg11.dtd"><svg t="1650187573034" class="icon" viewBox="0 0 1182 1024" version="1.1" xmlns="http://www.w3.org/2000/svg" p-id="22809" xmlns:xlink="http://www.w3.org/1999/xlink" width="230.859375" height="200"><defs><style type="text/css">@font-face { font-family: feedback-iconfont; src: url("//at.alicdn.com/t/font_1031158_u69w8yhxdu.woff2?t=1630033759944") format("woff2"), url("//at.alicdn.com/t/font_1031158_u69w8yhxdu.woff?t=1630033759944") format("woff"), url("//at.alicdn.com/t/font_1031158_u69w8yhxdu.ttf?t=1630033759944") format("truetype"); }
</style></defs><path d="M143.630821 650.864048a25.184582 25.184582 0 0 0 27.545637 24.397564h311.659205c14.953346 0 27.545637-6.689655 27.545637-22.036509s-12.198782-22.430019-27.545637-22.430019H171.176458c-15.346855 0-27.545637 6.296146-27.545637 21.249492zM143.630821 540.681501a28.332655 28.332655 0 0 0 27.545637 28.726164h439.549662a29.119673 29.119673 0 0 0 0-58.239346H171.176458a29.119673 29.119673 0 0 0-27.545637 29.119673z" p-id="22810"></path><path d="M601.675411 747.667287H78.70182V314.807279h1023.123655v172.750494c39.35091 9.444218 48.795128 28.726164 78.70182 57.058819a2.754564 2.754564 0 0 1 0 2.361054V59.026365A59.026365 59.026365 0 0 0 1121.50093 0h-1062.474565A59.026365 59.026365 0 0 0 0 59.026365v685.492849A81.849892 81.849892 0 0 0 81.849892 826.369106h513.922883zM1101.825475 78.70182v118.052729H78.70182V78.70182z" p-id="22811"></path><path d="M1147.079021 580.819429a123.168348 123.168348 0 0 0-173.931021-23.610546l-39.35091 29.906691a32.661255 32.661255 0 0 0-4.722109 46.434074 34.235292 34.235292 0 0 0 47.614601 4.722109l39.350909-29.906691a55.878292 55.878292 0 0 1 78.70182 14.559836 57.452328 57.452328 0 0 1-8.263691 83.03042l-118.052729 94.048675c-54.304256 42.892492-75.160238 18.101419-84.210947 7.476672a34.628801 34.628801 0 0 0-47.614601-4.722109 32.267746 32.267746 0 0 0-4.3286 46.434074 108.215002 108.215002 0 0 0 72.405674 39.35091 150.713985 150.713985 0 0 0 106.640965-39.35091l118.05273-94.048675a122.38133 122.38133 0 0 0 17.3144-176.292076z" p-id="22812"></path><path d="M802.365051 931.436035l-30.3002 24.004055a62.961456 62.961456 0 0 1-86.572002-8.6572 57.845837 57.845837 0 0 1 8.263691-81.062874l110.969566-88.146038c22.823528-18.101419 65.32251-44.073019 91.68762-13.379309a34.628801 34.628801 0 0 0 47.614601 4.722109 32.661255 32.661255 0 0 0 4.3286-46.434074c-44.466528-52.33671-118.052729-50.762674-186.523313 4.3286l-110.969566 88.146038a122.38133 122.38133 0 0 0-46.434073 84.604456 97.196747 97.196747 0 0 0 30.3002 78.70182 132.219057 132.219057 0 0 0 181.407695 17.707909l30.3002-24.004055c14.559837-11.411764 15.346855-20.462473 3.541582-34.6288a34.628801 34.628801 0 0 0-47.614601-5.902637z" p-id="22813"></path></svg>