<?xml version="1.0" standalone="no"?><!DOCTYPE svg PUBLIC "-//W3C//DTD SVG 1.1//EN" "http://www.w3.org/Graphics/SVG/1.1/DTD/svg11.dtd"><svg t="1650177637682" class="icon" viewBox="0 0 1024 1024" version="1.1" xmlns="http://www.w3.org/2000/svg" p-id="2628" xmlns:xlink="http://www.w3.org/1999/xlink" width="200" height="200"><defs><style type="text/css">@font-face { font-family: feedback-iconfont; src: url("//at.alicdn.com/t/font_1031158_u69w8yhxdu.woff2?t=1630033759944") format("woff2"), url("//at.alicdn.com/t/font_1031158_u69w8yhxdu.woff?t=1630033759944") format("woff"), url("//at.alicdn.com/t/font_1031158_u69w8yhxdu.ttf?t=1630033759944") format("truetype"); }
</style></defs><path d="M957.61 339.279c-32.622-82.395-84.743-151.125-150.853-202.772-9.727-25.737-121.918-87.073-248.476-99.009 8.718-0.117-19.776-2.734-48.874-2.743-24.63 0.002-51.154 2.809-77.148 7.181-126.444 21.713-233.782 90.526-305.39 187.365-32.861 36.415-70.98 114.726-85.948 200.976 4.737-39.715-7.316 19.798-7.323 82.123 0 55.664 10.189 109.222 27.997 159.211 29.666 82.14 78.516 151.262 141.307 204.413 15.281 32.144 130.579 97.597 261.324 110.34-5.97 0.085 20.555 2.886 47.775 2.886s53.765-2.799 79.741-7.161c130.629-22.427 241.040-95.217 312.566-197.266 31.563-37.241 67.042-114.894 80.005-199.968-4.189 39.063 6.076-16.053 6.098-73.569-0.097-61.644-12.209-121.17-34.133-175.683zM901.483 371.577l-83.653 48.165c-21.255-68.29-62.806-125.087-117.518-164.899l118.943-19.59c51.62 56.784 87.783 128.5 101.278 207.931zM767.796 512c0 140.709-114.743 255.175-255.796 255.175s-255.796-114.466-255.796-255.175c0-140.691 114.743-255.158 255.796-255.158 141.049-0.005 255.796 114.466 255.796 255.158zM512 98.396c27.282 0 53.924 2.819 79.741 7.866v97.389c-24.218-6.629-52.039-10.45-80.743-10.466-26.549 0.001-53.172 3.878-78.738 10.466v-97.389c24.163-4.998 51.933-7.858 80.368-7.866zM204.762 235.237l84.445 48.645c-48.533 47.081-82.113 109.339-93.047 179.105l-73.637-91.422c28.405-76.612 76.326-140.423 137.782-187.39zM117.695 639.29l84.9-48.878c17.694 67.862 55.363 125.228 106.278 167.067l-113.631 20.846c-48.564-57.055-82.059-128.327-93.519-206.772zM512 925.604c-28.465-0.048-56.222-2.956-83.033-8.443l3.294-96.807c25.534 6.595 52.159 10.464 79.741 10.464 27.557 0 54.208-3.872 79.741-10.464v97.389c-24.163 4.998-51.933 7.858-80.368 7.866zM828.709 778.318l-84.048-48.426c45.085-47.717 75.595-109.634 84.154-178.379l77.492 87.794c-25.324 76.251-69.843 140.429-127.897 188.942z" p-id="2629"></path><path d="M539.028 477.333c-40.682-15.267-57.409-25.299-57.409-41.039 0-13.362 10.029-26.725 41.141-26.725 0.212 0 0.468 0 0.721 0 15.491 0 30.422 2.404 44.432 6.862 5.529 1.741 12.663 0.986 18.699-2.367 6.011-3.329 10.365-8.996 12.093-15.664l0.439-1.644c0.561-2.113 0.881-4.547 0.881-7.044 0-13.219-9.006-24.338-21.215-27.555-14.746-3.826-31.471-6.044-48.694-6.149l6.044-17.802c0-12.174-9.056-22.836-21.207-23.963-0.669-0.066-1.454-0.109-2.25-0.109-12.924 0-23.398 10.461-23.429 23.376v21.94c-51.207 10.029-80.849 42.963-80.849 84.938 0 46.305 34.909 70.167 86.111 87.343 35.381 11.931 50.682 23.387 50.682 41.501 0 19.081-18.666 29.607-45.954 29.607-19.683-0.141-38.491-3.765-55.87-10.275-0.561-0.241-3.452-0.772-6.469-0.772-11.705 0-21.558 7.959-24.433 18.754l-0.257 0.987c-0.622 2.334-0.976 5.011-0.976 7.775 0 14.073 9.299 25.982 22.086 29.915 18.598 5.682 39.732 9.006 61.616 9.194l-8.127 21.092c0 12.906 10.481 23.387 23.429 23.387 0.002 0 0.003 0 0.005 0 12.925 0 23.404-10.466 23.429-23.387v-24.66c54.993-9.527 85.142-45.805 85.142-88.281 0.039-42.928-22.909-69.171-79.86-89.207z" p-id="2630"></path></svg>