<?xml version="1.0" standalone="no"?><!DOCTYPE svg PUBLIC "-//W3C//DTD SVG 1.1//EN" "http://www.w3.org/Graphics/SVG/1.1/DTD/svg11.dtd"><svg t="1650190239131" class="icon" viewBox="0 0 1024 1024" version="1.1" xmlns="http://www.w3.org/2000/svg" p-id="35827" xmlns:xlink="http://www.w3.org/1999/xlink" width="200" height="200"><defs><style type="text/css">@font-face { font-family: feedback-iconfont; src: url("//at.alicdn.com/t/font_1031158_u69w8yhxdu.woff2?t=1630033759944") format("woff2"), url("//at.alicdn.com/t/font_1031158_u69w8yhxdu.woff?t=1630033759944") format("woff"), url("//at.alicdn.com/t/font_1031158_u69w8yhxdu.ttf?t=1630033759944") format("truetype"); }
</style></defs><path d="M901.12 51.2H118.784c-45.056 0-81.92 36.864-81.92 81.92v770.048c0 45.056 36.864 81.92 81.92 81.92h782.336c45.056 0 81.92-36.864 81.92-81.92v-770.048c0-45.056-36.864-81.92-81.92-81.92z m12.288 851.968c0 6.5536-5.7344 12.288-12.288 12.288H118.784c-6.5536 0-12.288-5.7344-12.288-12.288v-770.048c0-6.5536 5.7344-12.288 12.288-12.288h782.336c6.5536 0 12.288 5.7344 12.288 12.288v770.048z" p-id="35828"></path><path d="M436.6336 420.2496V356.352c0-32.768-9.8304-58.5728-29.0816-77.4144-19.2512-18.8416-45.8752-28.2624-79.872-28.2624s-61.0304 9.4208-81.5104 28.672C225.28 298.1888 215.04 323.584 215.04 354.7136v65.9456c0 30.72 10.24 55.296 30.72 74.5472 20.48 18.8416 47.104 28.672 79.872 28.672 33.1776 0 59.8016-9.4208 80.2816-28.2624 20.48-19.6608 30.72-44.6464 30.72-75.3664z m-60.6208-20.0704c0 24.1664-4.096 42.5984-12.288 54.0672-8.192 11.8784-20.8896 17.6128-38.0928 17.6128-16.7936 0-29.4912-5.7344-37.6832-17.6128-8.192-11.8784-12.288-29.9008-12.288-54.0672v-25.3952c0-24.1664 4.096-42.1888 12.288-54.0672 8.192-11.8784 20.8896-17.6128 37.6832-17.6128s29.4912 5.7344 37.6832 17.6128c8.192 11.8784 12.288 29.9008 12.288 54.0672v25.3952zM607.0272 250.6752l-262.144 558.6944h55.296l262.144-558.6944zM684.4416 537.8048c-33.9968 0-61.44 9.4208-82.3296 28.2624-20.8896 18.8416-31.1296 43.8272-31.1296 74.1376v66.3552c0 30.3104 10.24 54.8864 30.72 74.1376 20.48 18.8416 47.5136 28.672 80.2816 28.672 33.1776 0 60.2112-9.4208 80.2816-28.2624 20.48-18.8416 30.72-43.4176 30.72-74.5472V643.072c0-32.768-9.8304-58.5728-29.0816-77.0048-18.8416-18.8416-45.4656-28.2624-79.4624-28.2624z m47.5136 148.6848c0 24.9856-4.096 43.008-12.288 54.4768-8.192 11.4688-20.48 17.2032-37.2736 17.2032-17.2032 0-29.9008-5.7344-38.0928-17.6128-8.192-11.8784-12.288-29.9008-12.288-54.0672v-24.1664c0-23.7568 4.096-41.7792 12.6976-54.0672 8.6016-11.8784 20.8896-18.0224 38.0928-18.0224 16.7936 0 29.0816 5.7344 37.2736 17.6128s12.288 29.9008 12.288 54.0672v24.576z" p-id="35829"></path></svg>