<?xml version="1.0" standalone="no"?><!DOCTYPE svg PUBLIC "-//W3C//DTD SVG 1.1//EN" "http://www.w3.org/Graphics/SVG/1.1/DTD/svg11.dtd"><svg t="1650189164269" class="icon" viewBox="0 0 1024 1024" version="1.1" xmlns="http://www.w3.org/2000/svg" p-id="28001" xmlns:xlink="http://www.w3.org/1999/xlink" width="200" height="200"><defs><style type="text/css">@font-face { font-family: feedback-iconfont; src: url("//at.alicdn.com/t/font_1031158_u69w8yhxdu.woff2?t=1630033759944") format("woff2"), url("//at.alicdn.com/t/font_1031158_u69w8yhxdu.woff?t=1630033759944") format("woff"), url("//at.alicdn.com/t/font_1031158_u69w8yhxdu.ttf?t=1630033759944") format("truetype"); }
</style></defs><path d="M909.22 764.85H114.78a29.07 29.07 0 0 1-29-29V205a29.07 29.07 0 0 1 29-29h794.44a29.07 29.07 0 0 1 29 29v530.8a29.07 29.07 0 0 1-29 29.05z m-767.16-56.32h739.88V232.29H142.06zM192.75 868.68h634.98V925H192.75z" p-id="28002"></path><path d="M257.59 622.39l-41.69-37.86 179.93-198.11L526.5 513.68l269.11-228.41 36.44 42.93L523.9 589.76 398.32 467.45 257.59 622.39z" p-id="28003"></path></svg>